<svg width="21" height="26" viewBox="0 0 21 26" fill="none" xmlns="http://www.w3.org/2000/svg">
<path fill-rule="evenodd" clip-rule="evenodd" d="M12.9082 13.97C12.9082 15.6747 12.9513 17.0963 12.0887 18.6103C11.3925 19.8411 10.2896 20.5981 9.0573 20.5981C7.37523 20.5981 6.39556 19.318 6.39556 17.4287C6.39556 13.6992 9.74122 13.0223 12.9082 13.0223V13.97ZM17.3259 24.6352C17.0364 24.8937 16.6174 24.9122 16.2908 24.7399C14.8367 23.5336 14.5779 22.9736 13.777 21.8228C11.374 24.2721 9.67345 25.0045 6.55576 25.0045C2.87122 25.0045 0 22.7336 0 18.1856C0 14.6347 1.92853 12.2161 4.67036 11.0345C7.04867 9.98825 10.3697 9.80363 12.9082 9.51438V8.9482C12.9082 7.90814 12.9883 6.6773 12.3783 5.77879C11.8423 4.97259 10.8195 4.64026 9.9199 4.64026C8.25016 4.64026 6.75909 5.49569 6.39556 7.2681C6.32162 7.66197 6.03204 8.04969 5.63771 8.06815L1.38632 7.61273C1.02896 7.53273 0.634626 7.24348 0.733209 6.69576C1.71288 1.55086 6.36475 0 10.5299 0C12.6617 0 15.4467 0.566187 17.1288 2.17858C19.2606 4.16639 19.0573 6.81884 19.0573 9.70516V16.524C19.0573 18.5734 19.9076 19.4719 20.7086 20.5796C20.992 20.9735 21.0536 21.4474 20.6962 21.7428C19.8028 22.4874 18.2132 23.8721 17.3383 24.6475L17.3259 24.6352" fill="black"/>
</svg>
