<svg width="30" height="25" viewBox="0 0 30 25" fill="none" xmlns="http://www.w3.org/2000/svg">
<path fill-rule="evenodd" clip-rule="evenodd" d="M5.29136 24.6968H0.910586C0.491611 24.666 0.158891 24.3522 0.128082 23.9522V1.49553C0.128082 1.04627 0.503933 0.689328 0.9722 0.689328H5.05723C5.48237 0.707778 5.82124 1.03396 5.85206 1.44014V4.37569H5.93215C6.99808 1.5386 9.00054 0.215454 11.6993 0.215454C14.4411 0.215454 16.154 1.5386 17.3863 4.37569C18.446 1.5386 20.8551 0.215454 23.4368 0.215454C25.2729 0.215454 27.2815 0.972419 28.5076 2.67098C29.894 4.56031 29.6105 7.30508 29.6105 9.71137L29.6044 23.8845C29.6044 24.3337 29.2285 24.6968 28.7603 24.6968H24.3856C23.9482 24.666 23.597 24.3153 23.597 23.8845V11.9823C23.597 11.0345 23.6832 8.67131 23.4738 7.7728C23.1472 6.26503 22.1675 5.84038 20.8983 5.84038C19.8385 5.84038 18.7294 6.54811 18.2797 7.68049C17.8299 8.81286 17.873 10.7083 17.873 11.9823V23.8845C17.873 24.3337 17.4972 24.6968 17.0289 24.6968H12.6543C12.2107 24.666 11.8656 24.3153 11.8656 23.8845L11.8595 11.9823C11.8595 9.47751 12.2723 5.79115 9.16075 5.79115C6.01225 5.79115 6.13548 9.38519 6.13548 11.9823V23.8845C6.13548 24.3337 5.75963 24.6968 5.29137 24.6968" fill="black"/>
</svg>
