<svg width="19" height="25" viewBox="0 0 19 25" fill="none" xmlns="http://www.w3.org/2000/svg">
<path fill-rule="evenodd" clip-rule="evenodd" d="M5.706 24.6968H1.34371C0.906242 24.666 0.55504 24.3153 0.55504 23.8845L0.548889 1.42168C0.585858 1.00934 0.949381 0.689328 1.393 0.689328H5.45339C5.83539 0.707778 6.14963 0.966267 6.23589 1.31706V4.75109H6.31599C7.54212 1.68015 9.26115 0.215454 12.2864 0.215454C14.2519 0.215454 16.1681 0.923187 17.4004 2.86176C18.5464 4.65878 18.5464 7.68049 18.5464 9.85291V23.9891C18.4971 24.383 18.1336 24.6968 17.7023 24.6968H13.3092C12.9087 24.666 12.576 24.3706 12.5329 23.9891V11.7915C12.5329 9.33596 12.8163 5.74191 9.79103 5.74191C8.72511 5.74191 7.74544 6.4558 7.25868 7.53894C6.64254 8.91133 6.56244 10.2776 6.56244 11.7915V23.8845C6.55628 24.3337 6.17427 24.6968 5.70601 24.6968" fill="black"/>
</svg>
