<svg width="21" height="26" viewBox="0 0 21 26" fill="none" xmlns="http://www.w3.org/2000/svg">
<path fill-rule="evenodd" clip-rule="evenodd" d="M10.2587 0.215454C16.759 0.215454 20.2771 5.79115 20.2771 12.8808C20.2771 19.7304 16.3893 25.1645 10.2587 25.1645C3.87543 25.1645 0.400391 19.5888 0.400391 12.6408C0.400391 5.6496 3.91856 0.215454 10.2587 0.215454ZM10.2956 4.80033C7.06705 4.80033 6.86373 9.19441 6.86373 11.933C6.86373 14.6778 6.82059 20.5366 10.2587 20.5366C13.6536 20.5366 13.8138 15.8102 13.8138 12.93C13.8138 11.0345 13.7337 8.76978 13.1607 6.97275C12.6678 5.40959 11.6881 4.80033 10.2956 4.80033Z" fill="black"/>
</svg>
