<svg width="24" height="26" viewBox="0 0 24 26" fill="none" xmlns="http://www.w3.org/2000/svg">
<path d="M18.7959 17.1766L22.9704 19.9596C21.6155 21.9553 18.3748 25.3792 12.7722 25.3792C5.81462 25.3792 0.633087 19.9963 0.633087 13.1486C0.633087 5.86148 5.86955 0.917969 12.1863 0.917969C18.5396 0.917969 21.6522 5.97133 22.6592 8.69942L23.2085 10.0909L6.83994 16.8654C8.08497 19.3188 10.0258 20.5638 12.7722 20.5638C15.5185 20.5638 17.4227 19.209 18.7959 17.1766ZM5.9611 12.7641L16.8917 8.22338C16.2875 6.70371 14.4932 5.62346 12.351 5.62346C9.62295 5.62346 5.83293 8.04028 5.9611 12.7641Z" fill="#FF302F"/>
</svg>
