<svg width="38" height="39" viewBox="0 0 38 39" fill="none" xmlns="http://www.w3.org/2000/svg">
<path d="M19.5716 33.0146C11.9 33.0146 5.8946 26.8261 5.8946 19.1545C5.8946 11.4829 11.9 5.29432 19.5716 5.29432C23.7095 5.29432 26.7306 6.92385 28.9643 9.01111L32.6445 5.33094C29.5319 2.34652 25.3757 0.0761719 19.5716 0.0761719C9.06211 0.0761719 0.218719 8.64492 0.218719 19.1545C0.218719 29.664 9.06211 38.2327 19.5716 38.2327C25.2475 38.2327 29.5319 36.3652 32.8825 32.8864C36.3246 29.4443 37.3866 24.6106 37.3866 20.6924C37.3866 19.4657 37.2401 18.2024 37.0753 17.2686H19.5716V22.3586H32.0403C31.6741 25.5444 30.6671 27.7232 29.184 29.2063C27.3897 31.0189 24.5518 33.0146 19.5716 33.0146Z" fill="#3686F7"/>
</svg>
