<svg width="79" height="28" viewBox="0 0 79 28" fill="none" xmlns="http://www.w3.org/2000/svg">
<path d="M77.1434 11.1667C74.6766 11.1667 72.9268 13.1127 72.9268 16.0999V27.0574H69.1612V7.77032H72.8817V10.1255C73.3406 9.34491 73.9982 8.70226 74.7864 8.26416C75.5746 7.82607 76.4647 7.60847 77.3644 7.63392H78.7173V11.1667H77.1434ZM66.559 17.4139C66.559 11.6623 62.5003 7.36112 57.0074 7.36112C55.7096 7.37001 54.4263 7.63752 53.2314 8.14828C52.0366 8.65904 50.9536 9.40296 50.045 10.3372C49.1363 11.2715 48.4198 12.3777 47.9368 13.5922C47.4538 14.8067 47.2137 16.1055 47.2303 17.4139C47.2303 23.1609 51.6273 27.5075 57.3637 27.5075C58.9661 27.538 60.5522 27.1798 61.9885 26.4628C63.4248 25.7459 64.6691 24.6914 65.6165 23.3882L62.8836 21.3695C62.2566 22.2517 61.427 22.9678 60.4657 23.4563C59.5044 23.9448 58.4401 24.1914 57.3637 24.1748C55.8307 24.1675 54.3509 23.6067 53.1927 22.5942C52.0344 21.5816 51.2743 20.1841 51.0501 18.6551H66.5681L66.559 17.4139ZM51.1313 15.6452C51.8032 12.7035 54.1347 10.712 56.9623 10.712C59.7899 10.712 62.117 12.7035 62.7483 15.6452H51.1313ZM35.3021 7.36112C34.0437 7.36219 32.7979 7.61467 31.6368 8.10398C30.4757 8.59329 29.4223 9.30973 28.5375 10.2119V0.568359H24.7719V27.0574H28.4924V24.6113C30.2948 26.4496 32.7473 27.4913 35.3111 27.5075C36.6411 27.536 37.9633 27.2965 39.2002 26.8031C40.4371 26.3097 41.5639 25.5722 42.5145 24.634C43.465 23.6958 44.2202 22.5757 44.7358 21.3394C45.2514 20.1031 45.517 18.7755 45.517 17.4343C45.517 16.0932 45.2514 14.7655 44.7358 13.5292C44.2202 12.2929 43.465 11.1728 42.5145 10.2346C41.5639 9.29641 40.4371 8.55898 39.2002 8.06555C37.9633 7.57212 36.6411 7.33263 35.3111 7.36112H35.3021ZM35.0315 24.1157C33.719 24.122 32.4342 23.7351 31.3401 23.004C30.246 22.2729 29.392 21.2306 28.8864 20.0094C28.3808 18.7882 28.2464 17.4431 28.5003 16.1448C28.7542 14.8465 29.3849 13.6534 30.3124 12.7171C31.2398 11.7807 32.4223 11.1432 33.7097 10.8855C34.9972 10.6277 36.3315 10.7614 37.5435 11.2695C38.7554 11.7775 39.7904 12.6371 40.517 13.7392C41.2436 14.8412 41.6292 16.136 41.6247 17.4593C41.6259 18.3322 41.4561 19.1967 41.1251 20.0032C40.7941 20.8097 40.3083 21.5424 39.6957 22.1591C39.0831 22.7759 38.3558 23.2646 37.5554 23.5973C36.755 23.9299 35.8973 24.0999 35.0315 24.0975V24.1157ZM10.9045 23.9338C14.5393 23.9338 17.3624 21.124 17.3624 16.9137V0.568359H21.2633V27.0574H17.4075V24.5522C16.5066 25.4908 15.4263 26.2355 14.2318 26.7411C13.0373 27.2468 11.7535 27.5028 10.458 27.4939C4.8524 27.4939 0.536591 23.3746 0.536591 17.1274V0.568359H4.50966V16.9365C4.50966 21.1694 7.2155 23.9338 10.9045 23.9338Z" fill="#262626"/>
</svg>
