<svg width="24" height="37" viewBox="0 0 24 37" fill="none" xmlns="http://www.w3.org/2000/svg">
<path d="M18.4294 1.87005H23.5194V23.6215C23.5194 32.648 18.1913 36.3648 11.8929 36.3648C5.96073 36.3648 2.39042 32.3733 1.05384 29.1326L5.72271 27.1918C6.56494 29.1875 8.59727 31.5494 11.8929 31.5494C15.9393 31.5494 18.4294 29.041 18.4294 24.3539V22.5962H18.2463C17.0379 24.0609 14.7309 25.3792 11.8014 25.3792C5.6861 25.3792 0.0834503 20.0512 0.0834503 13.1852C0.0834503 6.28259 5.6861 0.899658 11.8014 0.899658C14.7126 0.899658 17.0379 2.19962 18.2463 3.62774H18.4294V1.87005ZM18.7956 13.1852C18.7956 8.8642 15.921 5.715 12.2591 5.715C8.56066 5.715 5.44808 8.8642 5.44808 13.1852C5.44808 17.4513 8.56066 20.5455 12.2591 20.5455C15.921 20.5638 18.7956 17.4513 18.7956 13.1852Z" fill="#3686F7"/>
</svg>
