<svg width="79" height="28" viewBox="0 0 79 28" fill="none" xmlns="http://www.w3.org/2000/svg">
<path d="M0.0839844 0.568359H18.5152V5.11505H5.06272V11.5714H18.1409V15.9635H5.06272V22.5289H18.5152V27.0756H0.0839844V0.568359ZM69.4166 27.553C75.0672 27.553 78.2511 24.825 78.2511 21.0785C78.2511 18.4096 76.3661 16.4181 72.42 15.5543L68.2485 14.6949C65.8268 14.2403 65.0647 13.7856 65.0647 12.8763C65.0647 11.6987 66.2327 10.9757 68.3838 10.9757C70.7154 10.9757 72.4426 11.6077 72.8936 13.7811H77.7821C77.516 9.68903 74.5982 6.98829 68.6815 6.98829C63.5674 6.98829 59.9777 9.11615 59.9777 13.24C59.9777 16.0908 61.953 17.9458 66.2146 18.8506L70.8777 19.9373C72.7177 20.301 73.2092 20.8012 73.2092 21.5695C73.2092 22.7926 71.8202 23.561 69.5744 23.561C66.7513 23.561 65.1368 22.929 64.51 20.7557H59.5944C60.3114 24.8386 63.3149 27.553 69.4166 27.553ZM58.1738 27.0574H52.8839C49.5647 27.0574 47.7248 24.975 47.7248 22.347V11.9351H44.0042V7.49752H47.7428V1.92782H52.6584V7.49752H58.1738V11.9351H52.6584V21.0785C52.6584 22.1197 53.3755 22.6198 54.4984 22.6198H58.1738V27.0574ZM36.9781 7.50662V9.27073C35.2474 7.79572 33.0524 6.98986 30.7862 6.99739C29.4294 6.96861 28.0806 7.21319 26.8188 7.71677C25.557 8.22035 24.4076 8.97281 23.438 9.93004C22.4684 10.8873 21.698 12.03 21.1721 13.2913C20.6462 14.5526 20.3753 15.907 20.3753 17.2752C20.3753 18.6434 20.6462 19.9978 21.1721 21.2591C21.698 22.5204 22.4684 23.6631 23.438 24.6203C24.4076 25.5776 25.557 26.33 26.8188 26.8336C28.0806 27.3372 29.4294 27.5818 30.7862 27.553C33.0529 27.5629 35.2486 26.7568 36.9781 25.2796V27.0483H41.8801V7.49752L36.9781 7.50662ZM31.1921 23.2609C30.0162 23.2744 28.8629 22.9352 27.8787 22.2863C26.8945 21.6374 26.1239 20.7081 25.6648 19.6166C25.2057 18.5251 25.0788 17.3207 25.3003 16.1563C25.5218 14.9919 26.0816 13.9202 26.9087 13.0774C27.7358 12.2346 28.7927 11.6587 29.9452 11.4229C31.0976 11.1871 32.2936 11.3021 33.3811 11.7533C34.4686 12.2044 35.3985 12.9714 36.0526 13.9566C36.7067 14.9419 37.0556 16.101 37.0547 17.2866C37.0619 18.0681 36.9152 18.8433 36.6232 19.5674C36.3313 20.2914 35.8998 20.9498 35.3537 21.5046C34.8076 22.0594 34.1578 22.4995 33.442 22.7994C32.7261 23.0993 31.9583 23.2531 31.1831 23.2518L31.1921 23.2609Z" fill="#5FB709"/>
</svg>
