<svg width="64" height="68" viewBox="0 0 64 68" fill="none" xmlns="http://www.w3.org/2000/svg">
<path d="M31.9966 67.1464C29.1908 67.1464 26.5083 66.4989 24.4733 65.3581L8.00828 56.2318C3.53744 53.7651 0.0224743 47.8139 0.0224743 42.6956V25.244C0.0224743 20.1256 3.53744 14.2058 8.00828 11.7083L24.4733 2.58154C28.6666 0.238202 35.2649 0.238202 39.4891 2.58154L55.9541 11.7083C60.4249 14.175 63.9399 20.1256 63.9399 25.244V36.5289C63.9399 37.7931 62.8916 38.8414 61.6274 38.8414C60.3633 38.8414 59.3149 37.7931 59.3149 36.5289V25.244C59.3149 21.8523 56.6941 17.4125 53.7341 15.7783L37.2691 6.65157C34.4633 5.07907 29.5608 5.07907 26.7549 6.65157L10.2899 15.7783C7.29908 17.4433 4.70911 21.8523 4.70911 25.244V42.6956C4.70911 46.0873 7.32991 50.5276 10.2899 52.1618L26.7549 61.2881C29.4683 62.7989 34.5866 62.7989 37.2691 61.2881C38.3791 60.6714 39.7974 61.0726 40.4141 62.1826C41.0308 63.2926 40.6299 64.7106 39.5199 65.3273C37.4849 66.4989 34.8024 67.1464 31.9966 67.1464Z" fill="#2639ED"/>
</svg>
