<svg width="19" height="25" viewBox="0 0 19 25" fill="none" xmlns="http://www.w3.org/2000/svg">
<path fill-rule="evenodd" clip-rule="evenodd" d="M1.81757 4.65265V1.44016C1.81757 0.953979 2.18726 0.627808 2.63089 0.627808H17.0301C17.4922 0.627808 17.8619 0.960134 17.8619 1.44016V4.19108C17.8558 4.65265 17.4676 5.25576 16.7775 6.20966L9.31603 16.8503C12.0887 16.7826 15.0154 17.1949 17.5292 18.6104C18.0961 18.9304 18.2501 19.3981 18.2932 19.8597V23.2875C18.2932 23.7553 17.7757 24.303 17.2335 24.0199C12.8034 21.6998 6.91923 21.4474 2.0209 24.0445C1.52182 24.3153 0.998108 23.7737 0.998108 23.306V20.0504C0.998108 19.5273 1.00426 18.635 1.52798 17.8411L10.1725 5.45885H2.64937C2.18726 5.45885 1.81757 5.13268 1.81757 4.65265Z" fill="black"/>
</svg>
